<svg width="500" height="500" viewBox="0 0 500 500" fill="none" xmlns="http://www.w3.org/2000/svg">
<rect width="500" height="500" fill="black"/>
<path d="M112.95 97.75L108.45 88.75L183.15 47.35H193.05V371.8C193.05 396.1 190.35 417.25 224.1 423.1V433H117.45V423.1C151.2 417.25 148.5 396.1 148.5 371.8L148.95 131.95C148.95 92.8 140.4 84.7 112.95 97.75ZM378.028 235.78V285.94H367.768C361.688 246.42 342.308 222.86 311.148 222.86C287.588 222.86 271.248 236.16 271.248 255.16C271.248 306.84 390.948 300.76 390.948 374.48C390.948 413.24 358.268 439.46 311.148 439.46C277.328 439.46 240.848 425.78 240.848 411.34V357.76H251.108C257.948 402.98 294.428 427.68 322.168 427.68C342.308 427.68 356.748 414.38 356.748 394.24C356.748 337.24 239.328 342.18 239.328 270.36C239.328 233.88 269.728 211.46 319.508 211.46C352.568 211.46 376.128 221.34 378.028 235.78Z" fill="white"/>
</svg>
